<svg width="35" height="33" viewBox="0 0 35 33" fill="none" xmlns="http://www.w3.org/2000/svg">
<g clip-path="url(#clip0_317_4)">
<path fill-rule="evenodd" clip-rule="evenodd" d="M3.78125 33H30.25C32.3383 33 34.0312 31.3584 34.0312 29.3333V3.66667C34.0312 1.64162 32.3383 0 30.25 0H3.78125C1.69292 0 0 1.64162 0 3.66667V29.3333C0 31.3584 1.69292 33 3.78125 33Z" fill="#1C1C1C"/>
<path fill-rule="evenodd" clip-rule="evenodd" d="M29.3047 28.4167H24.2547V20.076C24.2547 17.7892 23.3586 16.5113 21.492 16.5113C19.4614 16.5113 18.4005 17.8411 18.4005 20.076V28.4167H13.5337V12.5278H18.4005V14.668C18.4005 14.668 19.8639 12.0424 23.341 12.0424C26.8165 12.0424 29.3047 14.1004 29.3047 18.3568V28.4167ZM7.72762 10.4473C6.06988 10.4473 4.72656 9.13444 4.72656 7.5153C4.72656 5.89617 6.06988 4.58334 7.72762 4.58334C9.38536 4.58334 10.7279 5.89617 10.7279 7.5153C10.7279 9.13444 9.38536 10.4473 7.72762 10.4473ZM5.2146 28.4167H10.2894V12.5278H5.2146V28.4167Z" fill="white"/>
</g>
<defs>
<clipPath id="clip0_317_4">
<rect width="34.0312" height="33" fill="white"/>
</clipPath>
</defs>
</svg>
