<svg width="440" height="91" viewBox="0 0 440 91" fill="none" xmlns="http://www.w3.org/2000/svg">
<path d="M23.232 46.36C23.232 48.9627 22.912 51.32 22.272 53.432C21.632 55.5227 20.6613 57.3253 19.36 58.84C18.08 60.3333 16.4693 61.4853 14.528 62.296C12.5867 63.1067 10.3253 63.512 7.744 63.512C6.57067 63.512 5.408 63.4373 4.256 63.288C3.12533 63.16 1.93067 62.9467 0.672 62.648C0.757333 61.7093 0.842667 60.7707 0.928 59.832C1.01333 58.8933 1.09867 57.9547 1.184 57.016C1.248 56.504 1.45067 56.0987 1.792 55.8C2.13333 55.48 2.624 55.32 3.264 55.32C3.62667 55.32 4.08533 55.384 4.64 55.512C5.216 55.64 5.92 55.704 6.752 55.704C7.904 55.704 8.90667 55.544 9.76 55.224C10.6133 54.904 11.328 54.3813 11.904 53.656C12.48 52.9307 12.9067 51.992 13.184 50.84C13.4827 49.6667 13.632 48.248 13.632 46.584V16.568H23.232V46.36ZM56.251 45.368L51.227 31.16C50.9283 30.4133 50.6083 29.5387 50.267 28.536C49.947 27.5333 49.6377 26.4453 49.339 25.272C49.0403 26.4667 48.7203 27.576 48.379 28.6C48.059 29.6027 47.7497 30.4773 47.451 31.224L42.459 45.368H56.251ZM72.379 63H64.923C64.091 63 63.4083 62.808 62.875 62.424C62.363 62.0187 61.979 61.5067 61.723 60.888L58.587 52.024H40.091L36.955 60.888C36.7417 61.4213 36.3683 61.912 35.835 62.36C35.3017 62.7867 34.6297 63 33.819 63H26.299L44.443 16.568H54.267L72.379 63ZM116.453 16.568V63H111.493C110.746 63 110.117 62.8827 109.605 62.648C109.093 62.392 108.591 61.9653 108.101 61.368L84.9645 31.928C85.0285 32.6747 85.0712 33.4107 85.0925 34.136C85.1352 34.8613 85.1565 35.5333 85.1565 36.152V63H76.6765V16.568H81.7325C82.1378 16.568 82.4792 16.5893 82.7565 16.632C83.0552 16.6533 83.3218 16.728 83.5565 16.856C83.7912 16.9627 84.0152 17.112 84.2285 17.304C84.4418 17.496 84.6765 17.752 84.9325 18.072L108.229 47.64C108.143 46.8293 108.079 46.0507 108.037 45.304C107.994 44.536 107.972 43.8107 107.972 43.128V16.568H116.453ZM135.841 63H126.177V16.568H135.841V63ZM155.216 24.088V36.024H170.704V43.288H155.216V55.48H175.12V63H145.552V16.568H175.12V24.088H155.216ZM212.98 51.576C213.513 51.576 213.961 51.768 214.324 52.152L218.132 56.216C216.255 58.6053 213.919 60.4187 211.124 61.656C208.351 62.8933 205.044 63.512 201.204 63.512C197.727 63.512 194.601 62.9253 191.828 61.752C189.055 60.5573 186.697 58.904 184.756 56.792C182.815 54.68 181.321 52.1733 180.276 49.272C179.231 46.3707 178.708 43.2027 178.708 39.768C178.708 37.464 178.953 35.2773 179.444 33.208C179.956 31.1173 180.692 29.1973 181.652 27.448C182.612 25.6987 183.764 24.12 185.108 22.712C186.473 21.304 188.009 20.1093 189.716 19.128C191.423 18.1253 193.279 17.368 195.284 16.856C197.311 16.3227 199.465 16.056 201.748 16.056C203.455 16.056 205.065 16.2053 206.58 16.504C208.116 16.8027 209.545 17.2187 210.868 17.752C212.191 18.2853 213.407 18.936 214.516 19.704C215.647 20.4507 216.66 21.272 217.556 22.168L214.324 26.584C214.132 26.8613 213.887 27.1067 213.588 27.32C213.289 27.5333 212.884 27.64 212.372 27.64C211.86 27.64 211.337 27.4587 210.804 27.096C210.292 26.7333 209.652 26.328 208.884 25.88C208.137 25.432 207.188 25.0267 206.036 24.664C204.905 24.3013 203.465 24.12 201.716 24.12C199.775 24.12 197.993 24.472 196.372 25.176C194.751 25.88 193.353 26.904 192.18 28.248C191.028 29.5707 190.132 31.2027 189.492 33.144C188.852 35.0853 188.532 37.2933 188.532 39.768C188.532 42.264 188.873 44.4933 189.556 46.456C190.26 48.3973 191.209 50.04 192.404 51.384C193.62 52.728 195.028 53.752 196.628 54.456C198.249 55.1387 199.977 55.48 201.812 55.48C202.9 55.48 203.881 55.4267 204.756 55.32C205.652 55.2133 206.473 55.032 207.22 54.776C207.988 54.52 208.703 54.1893 209.364 53.784C210.047 53.3787 210.729 52.8667 211.412 52.248C211.647 52.056 211.892 51.896 212.148 51.768C212.404 51.64 212.681 51.576 212.98 51.576Z" fill="black"/>
<path d="M261.792 40.952V58.552C259.488 60.216 257.024 61.464 254.4 62.296C251.797 63.1067 248.938 63.512 245.824 63.512C242.133 63.512 238.805 62.9467 235.84 61.816C232.874 60.664 230.336 59.064 228.224 57.016C226.133 54.9467 224.522 52.472 223.391 49.592C222.261 46.712 221.696 43.544 221.696 40.088C221.696 36.5893 222.24 33.4 223.328 30.52C224.437 27.64 226.005 25.176 228.032 23.128C230.058 21.0587 232.522 19.4587 235.424 18.328C238.325 17.1973 241.568 16.632 245.152 16.632C246.965 16.632 248.65 16.7707 250.208 17.048C251.765 17.304 253.205 17.688 254.528 18.2C255.85 18.6907 257.077 19.2987 258.208 20.024C259.338 20.728 260.394 21.528 261.376 22.424L259.616 25.24C259.338 25.6667 258.976 25.944 258.528 26.072C258.101 26.1787 257.621 26.072 257.088 25.752C256.576 25.4533 255.989 25.0907 255.328 24.664C254.666 24.2373 253.856 23.832 252.896 23.448C251.957 23.0427 250.837 22.7013 249.536 22.424C248.256 22.1467 246.73 22.008 244.96 22.008C242.378 22.008 240.042 22.4347 237.952 23.288C235.861 24.12 234.08 25.3253 232.608 26.904C231.136 28.4613 230.005 30.36 229.216 32.6C228.426 34.8187 228.032 37.3147 228.032 40.088C228.032 42.968 228.437 45.5493 229.248 47.832C230.08 50.0933 231.253 52.024 232.768 53.624C234.304 55.2027 236.16 56.408 238.336 57.24C240.512 58.072 242.954 58.488 245.664 58.488C247.797 58.488 249.685 58.2533 251.328 57.784C252.992 57.2933 254.613 56.6213 256.192 55.768V45.688H249.056C248.65 45.688 248.32 45.5707 248.064 45.336C247.829 45.1013 247.712 44.8133 247.712 44.472V40.952H261.792ZM295.271 45.976L288.071 27.32C287.857 26.7653 287.633 26.1253 287.399 25.4C287.164 24.6533 286.94 23.864 286.727 23.032C286.279 24.76 285.82 26.2 285.351 27.352L278.151 45.976H295.271ZM308.199 63H303.399C302.844 63 302.396 62.8613 302.055 62.584C301.713 62.3067 301.457 61.9547 301.287 61.528L296.999 50.456H276.423L272.135 61.528C272.007 61.912 271.761 62.2533 271.399 62.552C271.036 62.8507 270.588 63 270.055 63H265.255L283.591 17.144H289.863L308.199 63ZM361.943 17.144V63H356.503V29.304C356.503 28.856 356.514 28.376 356.535 27.864C356.578 27.352 356.62 26.8293 356.663 26.296L340.919 54.968C340.428 55.928 339.682 56.408 338.679 56.408H337.783C336.78 56.408 336.034 55.928 335.543 54.968L319.479 26.168C319.607 27.2987 319.671 28.344 319.671 29.304V63H314.231V17.144H318.807C319.362 17.144 319.788 17.1973 320.087 17.304C320.386 17.4107 320.674 17.7093 320.951 18.2L336.791 46.424C337.047 46.936 337.292 47.4693 337.527 48.024C337.783 48.5787 338.018 49.144 338.231 49.72C338.444 49.144 338.668 48.5787 338.903 48.024C339.138 47.448 339.394 46.904 339.671 46.392L355.223 18.2C355.479 17.7093 355.756 17.4107 356.055 17.304C356.375 17.1973 356.812 17.144 357.367 17.144H361.943ZM401.957 57.944L401.925 63H373.669V17.144H401.925V22.2H379.877V37.432H397.733V42.296H379.877V57.944H401.957ZM434.062 24.312C433.87 24.632 433.657 24.8773 433.422 25.048C433.209 25.1973 432.942 25.272 432.622 25.272C432.259 25.272 431.833 25.0907 431.342 24.728C430.851 24.3653 430.233 23.9707 429.486 23.544C428.761 23.096 427.875 22.6907 426.83 22.328C425.806 21.9653 424.558 21.784 423.086 21.784C421.699 21.784 420.473 21.976 419.406 22.36C418.361 22.7227 417.475 23.224 416.75 23.864C416.046 24.504 415.513 25.2613 415.15 26.136C414.787 26.9893 414.606 27.9173 414.606 28.92C414.606 30.2 414.915 31.2667 415.534 32.12C416.174 32.952 417.006 33.6667 418.03 34.264C419.075 34.8613 420.249 35.384 421.55 35.832C422.873 36.2587 424.217 36.7067 425.582 37.176C426.969 37.6453 428.313 38.1787 429.614 38.776C430.937 39.352 432.11 40.088 433.134 40.984C434.179 41.88 435.011 42.9787 435.63 44.28C436.27 45.5813 436.59 47.1813 436.59 49.08C436.59 51.0853 436.249 52.9733 435.566 54.744C434.883 56.4933 433.881 58.0187 432.558 59.32C431.257 60.6213 429.646 61.6453 427.726 62.392C425.827 63.1387 423.662 63.512 421.23 63.512C418.243 63.512 415.534 62.9787 413.102 61.912C410.67 60.824 408.59 59.3627 406.862 57.528L408.654 54.584C408.825 54.3493 409.027 54.1573 409.262 54.008C409.518 53.8373 409.795 53.752 410.094 53.752C410.371 53.752 410.681 53.8693 411.022 54.104C411.385 54.3173 411.79 54.5947 412.238 54.936C412.686 55.2773 413.198 55.6507 413.774 56.056C414.35 56.4613 415.001 56.8347 415.726 57.176C416.473 57.5173 417.315 57.8053 418.254 58.04C419.193 58.2533 420.249 58.36 421.422 58.36C422.894 58.36 424.206 58.1573 425.358 57.752C426.51 57.3467 427.481 56.7813 428.27 56.056C429.081 55.3093 429.699 54.424 430.126 53.4C430.553 52.376 430.766 51.2347 430.766 49.976C430.766 48.5893 430.446 47.4587 429.806 46.584C429.187 45.688 428.366 44.9413 427.342 44.344C426.318 43.7467 425.145 43.2453 423.822 42.84C422.499 42.4133 421.155 41.9867 419.79 41.56C418.425 41.112 417.081 40.6 415.758 40.024C414.435 39.448 413.262 38.7013 412.238 37.784C411.214 36.8667 410.382 35.7253 409.742 34.36C409.123 32.9733 408.814 31.2667 408.814 29.24C408.814 27.6187 409.123 26.0507 409.742 24.536C410.382 23.0213 411.299 21.6773 412.494 20.504C413.71 19.3307 415.193 18.392 416.942 17.688C418.713 16.984 420.739 16.632 423.022 16.632C425.582 16.632 427.907 17.0373 429.998 17.848C432.11 18.6587 433.966 19.832 435.566 21.368L434.062 24.312Z" fill="#2CB132"/>
<rect x="194" y="80" width="49" height="11" fill="#2CB132"/>
<rect x="194" y="34" width="9" height="8" fill="#2CB132"/>
<path d="M234 73H243V81H234V73Z" fill="#2CB132"/>
<rect x="234" y="34" width="9" height="8" fill="black"/>
</svg>
