<svg width="291" height="36" viewBox="0 0 291 36" fill="none" xmlns="http://www.w3.org/2000/svg">
<path d="M15.7904 2.3916H22.5622V24.8601C22.5622 26.937 22.0929 28.7413 21.1542 30.2727C20.2259 31.8042 18.9338 32.9843 17.2777 33.813C15.6217 34.6415 13.6966 35.056 11.5026 35.056C9.55126 35.056 7.77918 34.7151 6.18642 34.0331C4.60422 33.3408 3.34899 32.292 2.42077 30.8863C1.49254 29.4703 1.0337 27.6923 1.04425 25.5524H7.86357C7.88467 26.4021 8.05871 27.1311 8.3857 27.7395C8.72323 28.3374 9.18208 28.7989 9.76222 29.1241C10.3529 29.4389 11.0491 29.5961 11.8507 29.5961C12.6946 29.5961 13.4066 29.4178 13.9868 29.0611C14.5774 28.6941 15.0258 28.1591 15.3317 27.4562C15.6375 26.7535 15.7904 25.8881 15.7904 24.8601V2.3916ZM35.0301 35.0716C33.4796 35.0716 32.0977 34.8042 30.8847 34.2692C29.6717 33.7238 28.7118 32.9213 28.005 31.8619C27.3089 30.7919 26.9608 29.4598 26.9608 27.8654C26.9608 26.5227 27.2088 25.3951 27.7044 24.4825C28.2003 23.5699 28.8753 22.8356 29.7297 22.2797C30.5841 21.7238 31.5546 21.3042 32.641 21.0209C33.738 20.7378 34.8877 20.5384 36.0903 20.4231C37.5036 20.2762 38.6428 20.1399 39.5078 20.0139C40.3727 19.8777 41.0004 19.6783 41.3906 19.416C41.7809 19.1538 41.976 18.7657 41.976 18.2517V18.1573C41.976 17.1608 41.6596 16.3898 41.0267 15.8444C40.4043 15.2989 39.5183 15.0263 38.3685 15.0263C37.1555 15.0263 36.1904 15.2938 35.4732 15.8286C34.7558 16.3531 34.2812 17.014 34.0491 17.8111L27.8153 17.3077C28.1316 15.8392 28.754 14.5699 29.6823 13.5C30.6104 12.4196 31.8077 11.5909 33.2738 11.014C34.7505 10.4266 36.4594 10.1329 38.4002 10.1329C39.7503 10.1329 41.0425 10.2902 42.2766 10.6049C43.5213 10.9196 44.6235 11.4073 45.5834 12.0682C46.5539 12.729 47.3185 13.5787 47.8777 14.6171C48.4367 15.645 48.7162 16.8776 48.7162 18.3147V34.6154H42.3241V31.2639H42.1343C41.744 32.0192 41.2219 32.6854 40.5679 33.2622C39.9139 33.8286 39.1281 34.2745 38.2104 34.5996C37.2927 34.9143 36.2326 35.0716 35.0301 35.0716ZM36.9605 30.4457C37.952 30.4457 38.8275 30.2518 39.5869 29.8637C40.3464 29.465 40.9423 28.93 41.3748 28.2587C41.8072 27.5873 42.0235 26.8269 42.0235 25.9773V23.4126C41.8125 23.549 41.5225 23.6748 41.1532 23.7902C40.7946 23.8951 40.3886 23.9947 39.9349 24.0891C39.4815 24.173 39.0278 24.2518 38.5742 24.3252C38.1207 24.3881 37.7093 24.4458 37.3402 24.4983C36.549 24.6136 35.8582 24.7972 35.2674 25.0489C34.6767 25.3007 34.218 25.6415 33.8909 26.0716C33.564 26.4913 33.4004 27.0158 33.4004 27.6451C33.4004 28.5577 33.7327 29.2553 34.3972 29.7378C35.0723 30.2098 35.9267 30.4457 36.9605 30.4457ZM60.6856 20.6434V34.6154H53.9454V10.4475H60.3693V14.7115H60.654C61.192 13.3059 62.0938 12.194 63.3596 11.3759C64.6254 10.5472 66.16 10.1329 67.9638 10.1329C69.6515 10.1329 71.1229 10.5 72.3782 11.2343C73.6334 11.9685 74.609 13.0175 75.3052 14.3812C76.0014 15.7342 76.3495 17.3496 76.3495 19.2273V34.6154H69.6093V20.4231C69.6199 18.944 69.2402 17.7902 68.4701 16.9615C67.7001 16.1223 66.64 15.7028 65.2898 15.7028C64.3827 15.7028 63.5811 15.8969 62.8849 16.285C62.1992 16.6731 61.6614 17.2396 61.2711 17.9842C60.8914 18.7185 60.6962 19.6049 60.6856 20.6434ZM81.6618 34.6154V10.4475H88.402V34.6154H81.6618ZM85.0477 7.33215C84.0457 7.33215 83.186 7.00174 82.4687 6.34089C81.7619 5.66958 81.4087 4.86712 81.4087 3.93356C81.4087 3.01048 81.7619 2.21852 82.4687 1.55768C83.186 0.886355 84.0457 0.55069 85.0477 0.55069C86.0498 0.55069 86.9041 0.886355 87.6109 1.55768C88.3281 2.21852 88.6868 3.01048 88.6868 3.93356C88.6868 4.86712 88.3281 5.66958 87.6109 6.34089C86.9041 7.00174 86.0498 7.33215 85.0477 7.33215ZM104.877 35.0874C102.377 35.0874 100.225 34.5839 98.4213 33.5769C96.6281 32.5595 95.2464 31.1224 94.2759 29.2658C93.3056 27.3986 92.8204 25.1906 92.8204 22.6416C92.8204 20.1556 93.3056 17.9738 94.2759 16.0961C95.2464 14.2185 96.6124 12.7552 98.3739 11.7063C100.146 10.6573 102.224 10.1329 104.608 10.1329C106.211 10.1329 107.704 10.3899 109.085 10.9038C110.478 11.4073 111.691 12.1678 112.724 13.1853C113.769 14.2028 114.581 15.4825 115.161 17.0245C115.741 18.5559 116.031 20.3497 116.031 22.4056V24.2465H95.5101V20.0927H109.687C109.687 19.1276 109.476 18.2728 109.054 17.528C108.632 16.7832 108.046 16.2011 107.298 15.7814C106.559 15.3514 105.7 15.1363 104.719 15.1363C103.695 15.1363 102.788 15.3724 101.997 15.8444C101.217 16.3059 100.605 16.9301 100.162 17.7168C99.7187 18.4931 99.4919 19.3584 99.4815 20.313V24.2622C99.4815 25.4581 99.703 26.4913 100.146 27.3619C100.6 28.2326 101.238 28.9038 102.06 29.3759C102.883 29.8479 103.859 30.0839 104.988 30.0839C105.736 30.0839 106.422 29.979 107.044 29.7692C107.667 29.5595 108.199 29.2447 108.642 28.8252C109.085 28.4057 109.423 27.8915 109.655 27.2831L115.889 27.6923C115.573 29.1819 114.924 30.4826 113.943 31.5944C112.972 32.6957 111.717 33.5559 110.177 34.1748C108.648 34.7832 106.881 35.0874 104.877 35.0874ZM131.41 35.0874C128.921 35.0874 126.78 34.5629 124.987 33.5139C123.204 32.4545 121.833 30.986 120.873 29.1083C119.924 27.2308 119.449 25.07 119.449 22.6259C119.449 20.1503 119.929 17.9789 120.889 16.1119C121.859 14.2343 123.236 12.771 125.018 11.722C126.801 10.6626 128.921 10.1329 131.379 10.1329C133.499 10.1329 135.355 10.5157 136.948 11.2815C138.541 12.0472 139.801 13.1224 140.73 14.507C141.659 15.8916 142.17 17.5175 142.264 19.3846H135.904C135.725 18.1783 135.25 17.208 134.48 16.4737C133.72 15.7289 132.724 15.3566 131.49 15.3566C130.445 15.3566 129.533 15.6399 128.752 16.2062C127.982 16.7623 127.381 17.5752 126.949 18.6451C126.516 19.715 126.3 21.0104 126.3 22.5314C126.3 24.0735 126.511 25.3846 126.933 26.465C127.365 27.5454 127.972 28.3688 128.752 28.9353C129.533 29.5017 130.445 29.785 131.49 29.785C132.259 29.785 132.95 29.6276 133.562 29.313C134.185 28.9983 134.696 28.5419 135.097 27.944C135.508 27.3356 135.777 26.6066 135.904 25.757H142.264C142.158 27.6031 141.653 29.2289 140.745 30.6346C139.848 32.0297 138.609 33.1207 137.027 33.9073C135.445 34.694 133.573 35.0874 131.41 35.0874ZM142.165 8.00873V2.3916H168.779V8.00873H158.858V34.6154H152.086V8.00873H142.165ZM179.774 20.6434V34.6154H173.035V2.3916H179.585V14.7115H179.87C180.419 13.285 181.304 12.1678 182.528 11.3601C183.752 10.542 185.286 10.1329 187.132 10.1329C188.82 10.1329 190.292 10.5 191.546 11.2343C192.812 11.958 193.793 13.0017 194.49 14.3654C195.196 15.7186 195.544 17.3391 195.534 19.2273V34.6154H188.794V20.4231C188.803 18.9335 188.425 17.7744 187.655 16.9457C186.894 16.1172 185.829 15.7028 184.458 15.7028C183.54 15.7028 182.728 15.8969 182.021 16.285C181.325 16.6731 180.776 17.2396 180.375 17.9842C179.986 18.7185 179.785 19.6049 179.774 20.6434ZM211.913 35.0874C209.413 35.0874 207.262 34.5839 205.457 33.5769C203.665 32.5595 202.283 31.1224 201.312 29.2658C200.342 27.3986 199.857 25.1906 199.857 22.6416C199.857 20.1556 200.342 17.9738 201.312 16.0961C202.283 14.2185 203.648 12.7552 205.41 11.7063C207.182 10.6573 209.261 10.1329 211.645 10.1329C213.247 10.1329 214.74 10.3899 216.122 10.9038C217.515 11.4073 218.728 12.1678 219.761 13.1853C220.805 14.2028 221.618 15.4825 222.197 17.0245C222.778 18.5559 223.068 20.3497 223.068 22.4056V24.2465H202.547V20.0927H216.723C216.723 19.1276 216.512 18.2728 216.09 17.528C215.669 16.7832 215.082 16.2011 214.335 15.7814C213.595 15.3514 212.736 15.1363 211.755 15.1363C210.731 15.1363 209.825 15.3724 209.034 15.8444C208.253 16.3059 207.642 16.9301 207.198 17.7168C206.755 18.4931 206.528 19.3584 206.518 20.313V24.2622C206.518 25.4581 206.739 26.4913 207.182 27.3619C207.636 28.2326 208.274 28.9038 209.097 29.3759C209.92 29.8479 210.896 30.0839 212.023 30.0839C212.773 30.0839 213.459 29.979 214.081 29.7692C214.704 29.5595 215.236 29.2447 215.678 28.8252C216.122 28.4057 216.459 27.8915 216.692 27.2831L222.925 27.6923C222.609 29.1819 221.961 30.4826 220.979 31.5944C220.009 32.6957 218.754 33.5559 217.214 34.1748C215.684 34.7832 213.917 35.0874 211.913 35.0874ZM227.466 34.6154V10.4475H233.89V14.7115H234.176C234.681 13.2954 235.525 12.1783 236.707 11.3601C237.888 10.542 239.301 10.1329 240.947 10.1329C242.613 10.1329 244.032 10.5472 245.203 11.3759C246.374 12.194 247.154 13.3059 247.545 14.7115H247.798C248.294 13.3269 249.191 12.2203 250.487 11.3916C251.796 10.5524 253.341 10.1329 255.123 10.1329C257.392 10.1329 259.232 10.8514 260.646 12.2885C262.07 13.715 262.781 15.7395 262.781 18.3619V34.6154H256.056V19.6835C256.056 18.3409 255.698 17.3339 254.981 16.6626C254.264 15.9912 253.368 15.6556 252.291 15.6556C251.068 15.6556 250.112 16.0437 249.427 16.8199C248.742 17.5857 248.398 18.5979 248.398 19.8566V34.6154H241.864V19.5419C241.864 18.3567 241.522 17.4126 240.837 16.7098C240.161 16.007 239.27 15.6556 238.162 15.6556C237.413 15.6556 236.738 15.8444 236.137 16.222C235.546 16.5892 235.076 17.1084 234.728 17.7797C234.38 18.4406 234.206 19.2168 234.206 20.1083V34.6154H227.466ZM279.18 35.0874C276.681 35.0874 274.529 34.5839 272.725 33.5769C270.932 32.5595 269.551 31.1224 268.58 29.2658C267.61 27.3986 267.124 25.1906 267.124 22.6416C267.124 20.1556 267.61 17.9738 268.58 16.0961C269.551 14.2185 270.917 12.7552 272.678 11.7063C274.451 10.6573 276.528 10.1329 278.912 10.1329C280.516 10.1329 282.008 10.3899 283.389 10.9038C284.782 11.4073 285.995 12.1678 287.029 13.1853C288.073 14.2028 288.885 15.4825 289.466 17.0245C290.045 18.5559 290.336 20.3497 290.336 22.4056V24.2465H269.814V20.0927H283.991C283.991 19.1276 283.779 18.2728 283.357 17.528C282.936 16.7832 282.351 16.2011 281.602 15.7814C280.864 15.3514 280.003 15.1363 279.023 15.1363C278 15.1363 277.092 15.3724 276.301 15.8444C275.521 16.3059 274.909 16.9301 274.466 17.7168C274.023 18.4931 273.796 19.3584 273.785 20.313V24.2622C273.785 25.4581 274.006 26.4913 274.451 27.3619C274.903 28.2326 275.542 28.9038 276.365 29.3759C277.188 29.8479 278.163 30.0839 279.292 30.0839C280.041 30.0839 280.726 29.979 281.348 29.7692C281.971 29.5595 282.504 29.2447 282.947 28.8252C283.389 28.4057 283.728 27.8915 283.959 27.2831L290.192 27.6923C289.876 29.1819 289.228 30.4826 288.247 31.5944C287.277 32.6957 286.021 33.5559 284.481 34.1748C282.952 34.7832 281.185 35.0874 279.18 35.0874Z" fill="url(#paint0_linear_106_82)"/>
<defs>
<linearGradient id="paint0_linear_106_82" x1="-1.52348e-05" y1="18" x2="292.392" y2="18" gradientUnits="userSpaceOnUse">
<stop stop-color="#AE9438"/>
<stop offset="1" stop-color="#40B0B0"/>
</linearGradient>
</defs>
</svg>
