<svg width="30" height="30" viewBox="0 0 30 30" fill="none" xmlns="http://www.w3.org/2000/svg">
<mask id="mask0_307_7" style="mask-type:alpha" maskUnits="userSpaceOnUse" x="0" y="0" width="30" height="30">
<rect width="30" height="30" fill="#D9D9D9"/>
</mask>
<g mask="url(#mask0_307_7)">
<path d="M14.875 27.5L20.5625 12.5H23.1875L28.875 27.5H26.25L24.9375 23.6875H18.875L17.5 27.5H14.875ZM19.625 21.5H24.125L21.9375 15.3125H21.8125L19.625 21.5ZM5 23.75L3.25 22L9.5625 15.6875C8.77083 14.8125 8.07833 13.9062 7.485 12.9688C6.89083 12.0312 6.375 11.0417 5.9375 10H8.5625C8.9375 10.75 9.33875 11.4271 9.76625 12.0312C10.1929 12.6354 10.7083 13.2708 11.3125 13.9375C12.2292 12.9375 12.9896 11.9117 13.5938 10.86C14.1979 9.8075 14.7083 8.6875 15.125 7.5H1.25V5H10V2.5H12.5V5H21.25V7.5H17.625C17.1875 8.97917 16.5938 10.4167 15.8438 11.8125C15.0938 13.2083 14.1667 14.5208 13.0625 15.75L16.0625 18.8125L15.125 21.375L11.25 17.5L5 23.75Z" fill="white"/>
</g>
</svg>
