<svg width="33" height="33" viewBox="0 0 33 33" fill="none" xmlns="http://www.w3.org/2000/svg">
<mask id="mask0_307_7" style="mask-type:alpha" maskUnits="userSpaceOnUse" x="0" y="0" width="33" height="33">
<rect width="33" height="33" fill="#D9D9D9"/>
</mask>
<g mask="url(#mask0_307_7)">
<path d="M16.3625 30.25L22.6188 13.75H25.5062L31.7625 30.25H28.875L27.4313 26.0563H20.7625L19.25 30.25H16.3625ZM21.5875 23.65H26.5375L24.1312 16.8438H23.9938L21.5875 23.65ZM5.5 26.125L3.575 24.2L10.5188 17.2563C9.64792 16.2938 8.88617 15.2969 8.2335 14.2656C7.57992 13.2344 7.0125 12.1458 6.53125 11H9.41875C9.83125 11.825 10.2726 12.5698 10.7429 13.2344C11.2122 13.899 11.7792 14.5979 12.4438 15.3312C13.4521 14.2312 14.2885 13.1028 14.9531 11.946C15.6177 10.7882 16.1792 9.55625 16.6375 8.25H1.375V5.5H11V2.75H13.75V5.5H23.375V8.25H19.3875C18.9063 9.87708 18.2531 11.4583 17.4281 12.9937C16.6031 14.5292 15.5833 15.9729 14.3687 17.325L17.6688 20.6938L16.6375 23.5125L12.375 19.25L5.5 26.125Z" fill="white"/>
</g>
</svg>
