<svg width="30" height="30" viewBox="0 0 30 30" fill="none" xmlns="http://www.w3.org/2000/svg">
<mask id="mask0_334_202" style="mask-type:alpha" maskUnits="userSpaceOnUse" x="0" y="0" width="30" height="30">
<rect x="0.384277" y="0.547729" width="30" height="30" fill="#D9D9D9"/>
</mask>
<g mask="url(#mask0_334_202)">
<path d="M16.7593 29.2977C15.0093 29.2977 13.3684 28.9644 11.8368 28.2977C10.3059 27.6311 8.97303 26.7302 7.83803 25.5952C6.70219 24.4594 5.80094 23.1256 5.13428 21.594C4.46761 20.0631 4.13428 18.4227 4.13428 16.6727C4.13428 13.6311 5.10303 10.9486 7.04053 8.62523C8.97803 6.30273 11.4468 4.86023 14.4468 4.29773C14.0718 6.36023 14.1864 8.37565 14.7905 10.344C15.3947 12.3131 16.4364 14.0373 17.9155 15.5165C19.3947 16.9956 21.1189 18.0373 23.088 18.6415C25.0564 19.2456 27.0718 19.3602 29.1343 18.9852C28.5926 21.9852 27.1551 24.454 24.8218 26.3915C22.4884 28.329 19.8009 29.2977 16.7593 29.2977ZM16.7593 26.7977C18.5926 26.7977 20.2905 26.3394 21.853 25.4227C23.4155 24.5061 24.6447 23.2456 25.5405 21.6415C23.7489 21.4748 22.0509 21.0219 20.4468 20.2827C18.8426 19.5427 17.4051 18.5373 16.1343 17.2665C14.8634 15.9956 13.853 14.5581 13.103 12.954C12.353 11.3498 11.9051 9.6519 11.7593 7.86023C10.1551 8.75606 8.90011 9.99023 7.99428 11.5627C7.08761 13.1361 6.63428 14.8394 6.63428 16.6727C6.63428 19.4852 7.61886 21.8756 9.58803 23.844C11.5564 25.8131 13.9468 26.7977 16.7593 26.7977Z" fill="white"/>
</g>
</svg>
