<svg width="24" height="24" viewBox="0 0 24 24" fill="none" xmlns="http://www.w3.org/2000/svg">
<mask id="mask0_304_26" style="mask-type:alpha" maskUnits="userSpaceOnUse" x="0" y="0" width="24" height="24">
<rect width="24" height="24" fill="#D9D9D9"/>
</mask>
<g mask="url(#mask0_304_26)">
<path d="M5.2999 21.85C4.41657 21.85 3.67057 21.546 3.0619 20.938C2.4539 20.3293 2.1499 19.5833 2.1499 18.7V5.29999C2.1499 4.41666 2.4539 3.67066 3.0619 3.06199C3.67057 2.45399 4.41657 2.14999 5.2999 2.14999H11.9999V5.29999H5.2999V18.7H18.6999V12H21.8499V18.7C21.8499 19.5833 21.5459 20.3293 20.9379 20.938C20.3292 21.546 19.5832 21.85 18.6999 21.85H5.2999ZM10.4749 15.7L8.2999 13.525L16.5249 5.29999H13.9999V2.14999H21.8499V9.99999H18.6999V7.47499L10.4749 15.7Z" fill="#1C1B1F"/>
</g>
</svg>
