<svg width="33" height="33" viewBox="0 0 33 33" fill="none" xmlns="http://www.w3.org/2000/svg">
<mask id="mask0_307_25" style="mask-type:alpha" maskUnits="userSpaceOnUse" x="0" y="0" width="33" height="33">
<rect width="33" height="33" fill="#D9D9D9"/>
</mask>
<g mask="url(#mask0_307_25)">
<path d="M16.5 20.625C17.6458 20.625 18.6198 20.224 19.4219 19.4219C20.224 18.6198 20.625 17.6458 20.625 16.5C20.625 15.3542 20.224 14.3802 19.4219 13.5781C18.6198 12.776 17.6458 12.375 16.5 12.375C15.3542 12.375 14.3802 12.776 13.5781 13.5781C12.776 14.3802 12.375 15.3542 12.375 16.5C12.375 17.6458 12.776 18.6198 13.5781 19.4219C14.3802 20.224 15.3542 20.625 16.5 20.625ZM16.5 23.375C14.5979 23.375 12.9768 22.7045 11.6366 21.3634C10.2955 20.0232 9.625 18.4021 9.625 16.5C9.625 14.5979 10.2955 12.9763 11.6366 11.6353C12.9768 10.2951 14.5979 9.625 16.5 9.625C18.4021 9.625 20.0237 10.2951 21.3647 11.6353C22.7049 12.9763 23.375 14.5979 23.375 16.5C23.375 18.4021 22.7049 20.0232 21.3647 21.3634C20.0237 22.7045 18.4021 23.375 16.5 23.375ZM2.75 17.875C2.36042 17.875 2.03408 17.743 1.771 17.479C1.507 17.2159 1.375 16.8896 1.375 16.5C1.375 16.1104 1.507 15.7836 1.771 15.5196C2.03408 15.2565 2.36042 15.125 2.75 15.125H5.5C5.88958 15.125 6.21637 15.2565 6.48037 15.5196C6.74346 15.7836 6.875 16.1104 6.875 16.5C6.875 16.8896 6.74346 17.2159 6.48037 17.479C6.21637 17.743 5.88958 17.875 5.5 17.875H2.75ZM27.5 17.875C27.1104 17.875 26.7841 17.743 26.521 17.479C26.257 17.2159 26.125 16.8896 26.125 16.5C26.125 16.1104 26.257 15.7836 26.521 15.5196C26.7841 15.2565 27.1104 15.125 27.5 15.125H30.25C30.6396 15.125 30.9659 15.2565 31.229 15.5196C31.493 15.7836 31.625 16.1104 31.625 16.5C31.625 16.8896 31.493 17.2159 31.229 17.479C30.9659 17.743 30.6396 17.875 30.25 17.875H27.5ZM16.5 6.875C16.1104 6.875 15.7841 6.743 15.521 6.479C15.257 6.21592 15.125 5.88958 15.125 5.5V2.75C15.125 2.36042 15.257 2.03362 15.521 1.76962C15.7841 1.50654 16.1104 1.375 16.5 1.375C16.8896 1.375 17.2164 1.50654 17.4804 1.76962C17.7435 2.03362 17.875 2.36042 17.875 2.75V5.5C17.875 5.88958 17.7435 6.21592 17.4804 6.479C17.2164 6.743 16.8896 6.875 16.5 6.875ZM16.5 31.625C16.1104 31.625 15.7841 31.493 15.521 31.229C15.257 30.9659 15.125 30.6396 15.125 30.25V27.5C15.125 27.1104 15.257 26.7841 15.521 26.521C15.7841 26.257 16.1104 26.125 16.5 26.125C16.8896 26.125 17.2164 26.257 17.4804 26.521C17.7435 26.7841 17.875 27.1104 17.875 27.5V30.25C17.875 30.6396 17.7435 30.9659 17.4804 31.229C17.2164 31.493 16.8896 31.625 16.5 31.625ZM7.76875 9.69375L6.29062 8.25C6.01562 7.99792 5.88363 7.67708 5.89463 7.2875C5.90654 6.89792 6.03854 6.56562 6.29062 6.29062C6.56562 6.01562 6.89792 5.87813 7.2875 5.87813C7.67708 5.87813 7.99792 6.01562 8.25 6.29062L9.69375 7.76875C9.94583 8.04375 10.0719 8.36458 10.0719 8.73125C10.0719 9.09792 9.94583 9.41875 9.69375 9.69375C9.44167 9.96875 9.12679 10.1003 8.74913 10.0884C8.37054 10.0774 8.04375 9.94583 7.76875 9.69375ZM24.75 26.7094L23.3063 25.2313C23.0542 24.9563 22.9281 24.6299 22.9281 24.2523C22.9281 23.8737 23.0542 23.5583 23.3063 23.3063C23.5583 23.0313 23.8737 22.8997 24.2523 22.9116C24.6299 22.9226 24.9563 23.0542 25.2313 23.3063L26.7094 24.75C26.9844 25.0021 27.1164 25.3229 27.1054 25.7125C27.0935 26.1021 26.9615 26.4344 26.7094 26.7094C26.4344 26.9844 26.1021 27.1219 25.7125 27.1219C25.3229 27.1219 25.0021 26.9844 24.75 26.7094ZM23.3063 9.69375C23.0313 9.44167 22.8997 9.12633 22.9116 8.74775C22.9226 8.37008 23.0542 8.04375 23.3063 7.76875L24.75 6.29062C25.0021 6.01562 25.3229 5.88363 25.7125 5.89463C26.1021 5.90654 26.4344 6.03854 26.7094 6.29062C26.9844 6.56562 27.1219 6.89792 27.1219 7.2875C27.1219 7.67708 26.9844 7.99792 26.7094 8.25L25.2313 9.69375C24.9563 9.94583 24.6354 10.0719 24.2687 10.0719C23.9021 10.0719 23.5813 9.94583 23.3063 9.69375ZM6.29062 26.7094C6.01562 26.4344 5.87813 26.1021 5.87813 25.7125C5.87813 25.3229 6.01562 25.0021 6.29062 24.75L7.76875 23.3063C8.04375 23.0542 8.37054 22.9281 8.74913 22.9281C9.12679 22.9281 9.44167 23.0542 9.69375 23.3063C9.96875 23.5583 10.1007 23.8737 10.0897 24.2523C10.0778 24.6299 9.94583 24.9563 9.69375 25.2313L8.25 26.7094C7.99792 26.9844 7.67708 27.1159 7.2875 27.104C6.89792 27.093 6.56562 26.9615 6.29062 26.7094Z" fill="white"/>
</g>
</svg>
