<svg width="30" height="30" viewBox="0 0 30 30" fill="none" xmlns="http://www.w3.org/2000/svg">
<mask id="mask0_307_25" style="mask-type:alpha" maskUnits="userSpaceOnUse" x="0" y="0" width="30" height="30">
<rect width="30" height="30" fill="#D9D9D9"/>
</mask>
<g mask="url(#mask0_307_25)">
<path d="M15 18.75C16.0417 18.75 16.9271 18.3854 17.6562 17.6562C18.3854 16.9271 18.75 16.0417 18.75 15C18.75 13.9583 18.3854 13.0729 17.6562 12.3438C16.9271 11.6146 16.0417 11.25 15 11.25C13.9583 11.25 13.0729 11.6146 12.3438 12.3438C11.6146 13.0729 11.25 13.9583 11.25 15C11.25 16.0417 11.6146 16.9271 12.3438 17.6562C13.0729 18.3854 13.9583 18.75 15 18.75ZM15 21.25C13.2708 21.25 11.7971 20.6404 10.5788 19.4212C9.35958 18.2029 8.75 16.7292 8.75 15C8.75 13.2708 9.35958 11.7967 10.5788 10.5775C11.7971 9.35917 13.2708 8.75 15 8.75C16.7292 8.75 18.2033 9.35917 19.4225 10.5775C20.6408 11.7967 21.25 13.2708 21.25 15C21.25 16.7292 20.6408 18.2029 19.4225 19.4212C18.2033 20.6404 16.7292 21.25 15 21.25ZM2.5 16.25C2.14583 16.25 1.84917 16.13 1.61 15.89C1.37 15.6508 1.25 15.3542 1.25 15C1.25 14.6458 1.37 14.3487 1.61 14.1087C1.84917 13.8696 2.14583 13.75 2.5 13.75H5C5.35417 13.75 5.65125 13.8696 5.89125 14.1087C6.13042 14.3487 6.25 14.6458 6.25 15C6.25 15.3542 6.13042 15.6508 5.89125 15.89C5.65125 16.13 5.35417 16.25 5 16.25H2.5ZM25 16.25C24.6458 16.25 24.3492 16.13 24.11 15.89C23.87 15.6508 23.75 15.3542 23.75 15C23.75 14.6458 23.87 14.3487 24.11 14.1087C24.3492 13.8696 24.6458 13.75 25 13.75H27.5C27.8542 13.75 28.1508 13.8696 28.39 14.1087C28.63 14.3487 28.75 14.6458 28.75 15C28.75 15.3542 28.63 15.6508 28.39 15.89C28.1508 16.13 27.8542 16.25 27.5 16.25H25ZM15 6.25C14.6458 6.25 14.3492 6.13 14.11 5.89C13.87 5.65083 13.75 5.35417 13.75 5V2.5C13.75 2.14583 13.87 1.84875 14.11 1.60875C14.3492 1.36958 14.6458 1.25 15 1.25C15.3542 1.25 15.6513 1.36958 15.8913 1.60875C16.1304 1.84875 16.25 2.14583 16.25 2.5V5C16.25 5.35417 16.1304 5.65083 15.8913 5.89C15.6513 6.13 15.3542 6.25 15 6.25ZM15 28.75C14.6458 28.75 14.3492 28.63 14.11 28.39C13.87 28.1508 13.75 27.8542 13.75 27.5V25C13.75 24.6458 13.87 24.3492 14.11 24.11C14.3492 23.87 14.6458 23.75 15 23.75C15.3542 23.75 15.6513 23.87 15.8913 24.11C16.1304 24.3492 16.25 24.6458 16.25 25V27.5C16.25 27.8542 16.1304 28.1508 15.8913 28.39C15.6513 28.63 15.3542 28.75 15 28.75ZM7.0625 8.8125L5.71875 7.5C5.46875 7.27083 5.34875 6.97917 5.35875 6.625C5.36958 6.27083 5.48958 5.96875 5.71875 5.71875C5.96875 5.46875 6.27083 5.34375 6.625 5.34375C6.97917 5.34375 7.27083 5.46875 7.5 5.71875L8.8125 7.0625C9.04167 7.3125 9.15625 7.60417 9.15625 7.9375C9.15625 8.27083 9.04167 8.5625 8.8125 8.8125C8.58333 9.0625 8.29708 9.18208 7.95375 9.17125C7.60958 9.16125 7.3125 9.04167 7.0625 8.8125ZM22.5 24.2812L21.1875 22.9375C20.9583 22.6875 20.8437 22.3908 20.8437 22.0475C20.8437 21.7033 20.9583 21.4167 21.1875 21.1875C21.4167 20.9375 21.7033 20.8179 22.0475 20.8288C22.3908 20.8388 22.6875 20.9583 22.9375 21.1875L24.2812 22.5C24.5312 22.7292 24.6512 23.0208 24.6412 23.375C24.6304 23.7292 24.5104 24.0312 24.2812 24.2812C24.0312 24.5312 23.7292 24.6563 23.375 24.6563C23.0208 24.6563 22.7292 24.5312 22.5 24.2812ZM21.1875 8.8125C20.9375 8.58333 20.8179 8.29667 20.8288 7.9525C20.8388 7.60917 20.9583 7.3125 21.1875 7.0625L22.5 5.71875C22.7292 5.46875 23.0208 5.34875 23.375 5.35875C23.7292 5.36958 24.0312 5.48958 24.2812 5.71875C24.5312 5.96875 24.6563 6.27083 24.6563 6.625C24.6563 6.97917 24.5312 7.27083 24.2812 7.5L22.9375 8.8125C22.6875 9.04167 22.3958 9.15625 22.0625 9.15625C21.7292 9.15625 21.4375 9.04167 21.1875 8.8125ZM5.71875 24.2812C5.46875 24.0312 5.34375 23.7292 5.34375 23.375C5.34375 23.0208 5.46875 22.7292 5.71875 22.5L7.0625 21.1875C7.3125 20.9583 7.60958 20.8437 7.95375 20.8437C8.29708 20.8437 8.58333 20.9583 8.8125 21.1875C9.0625 21.4167 9.1825 21.7033 9.1725 22.0475C9.16167 22.3908 9.04167 22.6875 8.8125 22.9375L7.5 24.2812C7.27083 24.5312 6.97917 24.6508 6.625 24.64C6.27083 24.63 5.96875 24.5104 5.71875 24.2812Z" fill="white"/>
</g>
</svg>
