<svg width="28" height="28" viewBox="0 0 28 28" fill="none" xmlns="http://www.w3.org/2000/svg">
<rect width="28" height="28" rx="14" fill="white"/>
<path d="M20.3509 10.2727H21.6634V16.4602C21.6634 17.0199 21.5526 17.4986 21.331 17.8963C21.1122 18.294 20.804 18.598 20.4062 18.8082C20.0085 19.0156 19.5426 19.1193 19.0085 19.1193C18.517 19.1193 18.0753 19.0298 17.6832 18.8509C17.294 18.6719 16.9858 18.4119 16.7585 18.071C16.5341 17.7273 16.4219 17.3097 16.4219 16.8182H17.7301C17.7301 17.0597 17.7855 17.2685 17.8963 17.4446C18.0099 17.6207 18.1648 17.7585 18.3608 17.858C18.5597 17.9545 18.7869 18.0028 19.0426 18.0028C19.321 18.0028 19.5568 17.9446 19.75 17.8281C19.946 17.7088 20.0952 17.5341 20.1974 17.304C20.2997 17.0739 20.3509 16.7926 20.3509 16.4602V10.2727Z" fill="black"/>
<path d="M5.5625 10.2727H8.51136L10.5398 15.2159H10.642L12.6705 10.2727H15.6193V19H13.3011V13.9545H13.233L11.2898 18.9318H9.89205L7.94886 13.9205H7.88068V19H5.5625V10.2727Z" fill="black"/>
</svg>
